PathFileType  4	(X/Y/Z) C:\simtk\uwmodels\fbknee\data\invivovalid2\exp\aclc01\Files_W_HJCs
DataRate	CameraRate	NumFrames	NumMarkers	Units	OrigDataRate	OrigDataStartFrame	OrigNumFrames
  200.0      200.0        10         42 mm      200.0         1       515
Frame#	Time            R.Shoulder                       R.Clavicle                       R.Bicep                          R.Elbow                          R.Forearm                        R.Wrist                          L.Shoulder                       L.Clavicle                       L.Scapula                        L.Bicep                          L.Elbow                          L.Forearm                        L.Wrist                          R.ASIS                           R.PSIS                           S2                               L.PSIS                           L.ASIS                           R.TH1                            R.TH2                            R.TH3                            R.Knee                           R.SH1                            R.SH2                            R.SH3                            R.SH4                            R.Ankle                          R.Heel                           R.MT5                            L.TH1                            L.TH2                            L.TH3                            L.TH4                            L.Knee                           L.SH1                            L.SH2                            L.SH3                            L.Ankle                          L.Heel                           L.MT5                            R_HJC                            L_HJC                  
                     X1         Y1         Z1         X2         Y2         Z2         X3         Y3         Z3         X4         Y4         Z4         X5         Y5         Z5         X6         Y6         Z6         X7         Y7         Z7         X8         Y8         Z8         X9         Y9         Z9         X10         Y10         Z10         X11         Y11         Z11         X12         Y12         Z12         X13         Y13         Z13         X14         Y14         Z14         X15         Y15         Z15         X16         Y16         Z16         X17         Y17         Z17         X18         Y18         Z18         X19         Y19         Z19         X20         Y20         Z20         X21         Y21         Z21         X22         Y22         Z22         X23         Y23         Z23         X24         Y24         Z24         X25         Y25         Z25         X26         Y26         Z26         X27         Y27         Z27         X28         Y28         Z28         X29         Y29         Z29         X30         Y30         Z30         X31         Y31         Z31         X32         Y32         Z32         X33         Y33         Z33         X34         Y34         Z34         X35         Y35         Z35         X36         Y36         Z36         X37         Y37         Z37         X38         Y38         Z38         X39         Y39         Z39         X40         Y40         Z40         X41         Y41         Z41         X42         Y42         Z42         

	1	0.00000	-1694.695	79.819	1355.499	-1632.013	223.745	1334.823	-1660.339	65.419	1129.581	-1751.376	-21.641	1054.126	-1649.174	-3.631	965.543	-1652.676	-63.136	860.916	-1649.089	452.089	1331.881	-1624.200	283.899	1329.888	-1800.506	367.200	1332.085	-1607.480	456.571	1166.259	-1646.882	538.417	1023.891	-1560.715	513.914	954.017	-1540.451	553.671	841.709	-1615.898	107.878	906.418	-1842.509	213.633	945.408	-1845.093	266.634	942.446	-1832.111	316.658	959.745	-1589.315	366.659	905.445	-1616.194	28.236	705.710	-1746.965	85.821	649.105	-1713.723	91.545	581.354	-1631.555	54.459	482.610	-1664.677	47.843	365.266	-1700.351	72.704	303.308	-1729.810	122.599	433.726	-1768.598	140.592	369.634	-1822.680	141.523	168.181	-1870.636	220.083	167.109	-1768.384	88.579	58.233	-1595.107	402.791	643.398	-1584.015	374.910	567.277	-1744.190	413.463	620.198	-1738.092	392.017	545.185	-1684.629	391.749	469.246	-1646.133	385.374	369.575	-1772.175	386.794	311.077	-1772.534	392.071	310.540	-1714.856	363.090	72.792	-1807.667	333.275	43.590	-1610.742	366.484	21.191	-1702.128	155.018	851.126	-1684.138	349.417	830.287
	2	0.00500	-1688.952	78.900	1356.183	-1625.952	223.127	1335.898	-1654.968	64.500	1130.191	-1746.994	-21.740	1055.134	-1645.111	-4.225	965.693	-1649.615	-64.723	861.557	-1642.593	451.821	1333.097	-1617.584	283.456	1330.985	-1794.108	366.663	1333.212	-1599.227	456.642	1169.301	-1635.726	538.355	1025.551	-1549.047	513.213	958.717	-1526.889	552.984	847.647	-1609.153	108.493	908.394	-1836.484	212.874	946.892	-1839.396	265.855	943.861	-1826.429	315.669	961.041	-1583.890	366.630	907.067	-1606.839	28.683	707.502	-1738.613	84.648	650.139	-1704.393	90.461	582.377	-1621.071	55.285	483.864	-1652.350	47.776	365.610	-1685.806	72.593	303.114	-1719.174	123.769	431.081	-1755.906	141.017	366.058	-1803.497	142.319	161.724	-1848.881	221.153	160.256	-1746.176	86.482	55.904	-1592.818	403.449	642.505	-1580.878	374.477	566.410	-1742.051	412.622	621.585	-1736.532	390.898	546.204	-1683.684	391.606	469.484	-1646.902	385.572	369.939	-1763.500	386.518	391.179	-1772.659	386.063	311.472	-1714.901	363.020	72.816	-1803.251	333.774	44.815	-1610.546	366.213	21.499	-1695.604	154.722	852.896	-1678.530	349.177	831.800
	3	0.01000	-1683.700	78.612	1357.220	-1619.970	222.816	1336.532	-1650.506	64.341	1130.963	-1741.706	-22.190	1055.796	-1641.217	-5.686	966.151	-1646.863	-65.475	862.125	-1636.177	450.813	1334.231	-1611.196	283.526	1332.478	-1788.526	366.436	1333.702	-1590.934	456.770	1170.625	-1626.162	537.618	1027.689	-1537.591	512.123	963.424	-1511.450	551.112	851.987	-1602.878	108.022	910.505	-1830.392	212.262	948.297	-1833.700	264.787	945.210	-1820.520	315.178	961.576	-1579.053	366.200	907.208	-1599.192	28.733	709.655	-1730.588	83.536	651.084	-1695.892	89.497	583.804	-1611.141	55.493	485.374	-1639.892	48.090	365.909	-1671.867	71.923	301.816	-1709.056	123.290	430.032	-1743.665	141.011	363.041	-1785.903	139.827	157.665	-1831.909	218.229	155.358	-1725.411	84.323	53.334	-1589.612	403.149	641.641	-1578.730	375.041	565.322	-1739.251	411.579	622.208	-1734.919	390.680	547.174	-1682.926	391.482	469.634	-1646.587	385.630	370.146	-1763.877	386.029	391.754	-1772.655	385.122	312.244	-1715.373	362.844	73.032	-1804.292	333.406	44.505	-1610.742	366.484	21.191	-1689.597	153.612	854.752	-1673.206	347.948	832.078
	4	0.01500	-1677.460	77.989	1358.089	-1614.315	222.550	1337.513	-1644.895	63.434	1131.511	-1737.118	-22.275	1056.889	-1637.016	-6.469	966.623	-1643.887	-66.699	862.435	-1630.079	450.775	1335.905	-1604.762	282.724	1333.417	-1781.374	366.305	1334.392	-1583.773	456.088	1173.372	-1615.099	538.212	1029.069	-1525.169	510.951	967.124	-1497.245	549.900	856.744	-1596.666	108.439	911.929	-1823.415	215.204	947.191	-1827.457	263.761	945.943	-1812.345	317.840	959.851	-1571.729	366.590	907.557	-1590.725	28.374	711.810	-1722.050	82.331	651.820	-1687.088	88.762	584.954	-1600.752	56.215	486.080	-1627.414	48.166	366.331	-1657.384	72.116	300.705	-1698.441	123.341	427.447	-1731.474	141.226	359.215	-1769.927	133.928	155.956	-1819.915	209.009	150.292	-1702.543	82.639	50.351	-1586.587	403.584	641.053	-1578.086	375.748	564.558	-1736.589	410.997	623.152	-1733.327	389.767	548.793	-1682.310	391.412	470.040	-1647.219	385.613	370.455	-1763.923	385.105	391.769	-1772.948	384.458	312.657	-1715.373	362.844	73.032	-1807.443	332.713	43.541	-1610.546	366.213	21.499	-1682.612	154.068	855.468	-1665.266	348.205	831.824
	5	0.02000	-1672.568	78.017	1358.775	-1607.334	222.252	1337.817	-1638.995	62.890	1132.444	-1732.672	-22.766	1057.663	-1632.266	-7.100	966.716	-1639.549	-69.620	863.815	-1622.934	450.213	1337.478	-1598.633	281.486	1333.877	-1778.336	365.767	1337.447	-1574.921	455.854	1175.783	-1604.648	537.482	1031.149	-1508.533	505.084	969.119	-1482.949	547.171	861.708	-1590.455	108.010	913.378	-1818.549	211.525	949.637	-1821.652	263.385	946.127	-1808.307	313.751	962.286	-1566.137	366.748	908.639	-1582.687	28.418	713.091	-1714.267	80.863	652.923	-1678.819	87.461	586.076	-1590.755	56.975	487.849	-1615.377	48.522	366.433	-1643.132	71.470	299.945	-1687.133	125.657	424.089	-1721.274	137.510	358.641	-1751.365	132.994	150.407	-1799.824	208.062	144.928	-1681.139	79.914	47.894	-1583.959	403.740	639.810	-1576.753	375.999	563.477	-1733.868	409.880	624.450	-1731.243	389.491	549.133	-1681.962	390.758	470.449	-1646.084	385.976	370.623	-1763.505	384.297	391.988	-1772.676	383.726	313.375	-1715.373	362.844	73.032	-1807.151	332.590	43.402	-1610.546	366.213	21.499	-1676.568	152.778	856.904	-1660.815	347.060	833.332
	6	0.02500	-1665.966	77.368	1359.080	-1600.989	221.482	1338.683	-1633.970	61.977	1132.905	-1728.147	-23.243	1058.479	-1628.009	-8.417	966.426	-1636.277	-71.066	863.732	-1616.169	449.518	1338.733	-1592.236	282.173	1334.242	-1772.117	365.670	1337.816	-1567.645	455.939	1178.029	-1595.399	537.668	1032.130	-1499.050	504.404	972.584	-1467.728	545.646	866.897	-1584.681	107.932	914.252	-1811.904	214.103	948.233	-1815.236	262.280	947.013	-1800.689	316.323	960.346	-1561.448	366.656	908.964	-1574.196	28.692	715.053	-1705.855	79.875	653.518	-1670.553	86.560	586.887	-1580.583	57.765	487.926	-1603.065	48.663	366.479	-1628.737	71.400	298.638	-1676.452	126.409	421.057	-1708.656	137.691	354.797	-1731.398	133.696	144.709	-1780.414	205.979	138.128	-1658.571	77.365	46.416	-1580.779	403.735	639.372	-1573.933	375.975	562.503	-1731.537	409.482	624.962	-1729.465	388.437	549.984	-1680.935	390.634	470.329	-1641.715	388.672	372.786	-1757.053	380.570	386.911	-1771.998	383.449	313.769	-1715.185	362.831	73.133	-1802.088	333.174	44.674	-1610.546	366.213	21.499	-1670.315	153.070	857.280	-1653.916	347.197	832.892
	7	0.03000	-1660.184	77.336	1359.101	-1594.797	221.952	1339.458	-1628.962	61.401	1133.374	-1723.422	-23.891	1059.172	-1623.883	-10.475	966.776	-1634.784	-71.080	863.473	-1610.069	448.977	1339.932	-1586.382	281.317	1334.658	-1763.075	365.774	1336.390	-1559.708	455.254	1179.563	-1585.381	537.665	1033.271	-1487.798	502.378	976.326	-1453.890	543.935	871.155	-1578.395	107.566	915.211	-1806.671	210.817	951.076	-1811.847	257.649	949.611	-1796.176	312.720	962.667	-1555.961	366.511	908.336	-1566.180	28.647	716.004	-1698.108	78.705	653.956	-1662.190	86.066	587.883	-1571.010	57.529	489.699	-1590.968	48.439	366.277	-1614.646	71.020	298.492	-1665.899	126.527	418.814	-1695.585	137.969	350.739	-1710.366	134.277	138.901	-1762.184	207.565	129.455	-1636.853	74.699	44.605	-1577.807	403.878	638.222	-1571.810	376.073	561.782	-1729.457	408.541	626.193	-1727.713	387.705	550.738	-1680.340	390.588	470.655	-1642.284	388.056	372.681	-1756.045	380.164	387.932	-1771.299	383.105	313.975	-1714.077	363.192	73.442	-1802.221	332.701	45.259	-1610.546	366.213	21.499	-1664.893	150.894	858.855	-1651.039	345.106	833.579
	8	0.03500	-1654.452	76.507	1359.517	-1587.991	221.178	1340.140	-1624.184	61.239	1133.193	-1718.881	-21.024	1059.261	-1619.872	-11.197	966.300	-1631.505	-71.935	863.304	-1603.967	448.314	1340.343	-1579.572	280.864	1334.922	-1756.108	365.621	1336.789	-1551.412	455.057	1180.904	-1570.982	536.176	1036.152	-1476.392	501.382	980.471	-1439.636	541.330	875.690	-1571.714	108.311	915.972	-1800.880	209.889	951.475	-1811.495	256.462	954.075	-1790.123	311.672	962.502	-1549.844	366.145	908.375	-1558.831	28.629	717.397	-1690.067	77.806	654.184	-1654.199	85.232	588.656	-1561.482	58.970	489.837	-1578.845	49.056	365.842	-1600.137	70.324	296.795	-1655.194	126.964	415.443	-1682.887	138.279	346.861	-1691.293	131.964	134.845	-1742.065	205.783	122.503	-1614.417	71.830	43.155	-1575.170	404.240	637.513	-1569.789	376.282	561.039	-1726.236	407.707	627.121	-1725.850	387.238	551.498	-1679.640	390.339	471.224	-1643.293	387.745	372.735	-1754.882	380.267	388.103	-1770.434	382.800	314.866	-1715.121	362.698	73.252	-1802.221	332.701	45.259	-1610.546	366.213	21.499	-1659.756	150.357	860.009	-1646.913	344.570	834.207
	9	0.04000	-1648.906	76.013	1360.049	-1581.740	220.857	1340.168	-1618.327	59.963	1132.995	-1713.980	-21.414	1059.786	-1615.114	-12.128	966.340	-1628.093	-73.196	863.537	-1597.209	447.644	1341.503	-1573.689	280.657	1335.034	-1749.960	365.012	1337.108	-1543.692	455.354	1183.384	-1561.676	535.802	1036.532	-1464.987	499.793	984.169	-1425.637	538.963	880.530	-1565.869	108.256	916.324	-1795.289	209.444	951.855	-1805.198	255.407	954.186	-1783.879	311.228	962.716	-1543.684	365.858	909.030	-1551.223	28.786	718.089	-1682.460	76.317	654.948	-1648.608	80.158	592.222	-1552.163	59.719	490.110	-1566.685	49.031	365.268	-1586.136	69.414	296.416	-1644.959	127.326	412.968	-1669.656	138.600	342.181	-1671.628	130.724	129.625	-1722.656	204.037	115.480	-1592.004	69.121	41.433	-1572.733	404.473	636.327	-1567.823	376.295	560.197	-1723.919	407.361	627.598	-1723.993	386.405	552.037	-1678.593	389.643	471.494	-1642.202	387.412	373.205	-1759.182	383.547	392.939	-1769.197	382.596	314.965	-1714.673	362.419	73.388	-1802.088	333.174	44.674	-1610.546	366.213	21.499	-1653.593	149.999	860.302	-1640.810	344.243	834.710
	10	0.04500	-1642.494	75.831	1359.956	-1575.486	220.049	1339.556	-1613.080	60.125	1133.068	-1709.038	-21.458	1059.741	-1610.264	-13.911	966.507	-1624.780	-73.928	863.197	-1590.666	446.633	1342.099	-1567.444	280.119	1335.968	-1743.665	365.227	1337.202	-1536.496	454.541	1184.246	-1551.518	535.229	1037.784	-1453.628	499.108	987.736	-1411.587	537.559	884.566	-1558.915	107.663	916.984	-1788.961	207.666	952.375	-1798.314	255.094	953.182	-1778.366	310.527	962.849	-1533.510	365.582	907.993	-1543.279	28.848	719.035	-1674.941	75.159	655.398	-1640.889	79.317	592.691	-1543.818	59.922	491.512	-1554.875	48.819	364.934	-1571.899	69.637	293.929	-1633.776	128.618	409.008	-1656.609	138.469	338.115	-1651.987	128.417	125.215	-1702.737	198.532	109.086	-1569.481	67.202	39.668	-1569.838	403.905	635.869	-1565.349	376.534	559.246	-1719.035	406.075	627.504	-1721.964	386.086	552.842	-1677.471	389.475	471.700	-1640.661	386.100	372.836	-1758.304	382.625	394.566	-1768.188	383.046	314.963	-1714.249	362.068	73.404	-1802.309	332.350	45.396	-1610.546	366.213	21.499	-1646.413	148.865	860.677	-1633.417	342.977	834.207
